<svg width="20" height="20" viewBox="0 0 20 20" fill="none" xmlns="http://www.w3.org/2000/svg">
<path d="M10 2C5.588 2 2 5.588 2 10C2 14.412 5.588 18 10 18C14.412 18 18 14.412 18 10C18 5.588 14.412 2 10 2ZM10 3C10.231 3 10.485 3.117 10.773 3.43C11.063 3.742 11.356 4.24 11.605 4.879C11.839 5.476 12.028 6.199 12.17 7H7.83C7.972 6.2 8.161 5.476 8.395 4.879C8.644 4.241 8.938 3.742 9.227 3.429C9.515 3.118 9.769 3 10 3ZM8.1 3.266C7.86 3.626 7.648 4.042 7.463 4.516C7.15926 5.31916 6.93942 6.15159 6.807 7H3.68C4.10763 6.09825 4.72332 5.29847 5.48569 4.65441C6.24807 4.01036 7.13947 3.53695 8.1 3.266ZM11.9 3.266C12.8605 3.53695 13.7519 4.01036 14.5143 4.65441C15.2767 5.29847 15.8924 6.09825 16.32 7H13.193C13.0606 6.15159 12.8407 5.31916 12.537 4.516C12.3698 4.07782 12.1563 3.65877 11.9 3.266ZM3.293 8H6.687C6.61365 8.66419 6.57527 9.33178 6.572 10C6.572 10.696 6.62 11.357 6.687 12H3.293C3.09913 11.351 3.00043 10.6773 3 10C3 9.304 3.105 8.634 3.293 8ZM7.695 8H12.305C12.376 8.638 12.428 9.3 12.428 10C12.428 10.7 12.376 11.36 12.305 12H7.695C7.624 11.36 7.572 10.7 7.572 10C7.572 9.3 7.624 8.638 7.695 8ZM13.312 8H16.707C16.895 8.634 17 9.304 17 10C17 10.696 16.895 11.366 16.707 12H13.312C13.38 11.357 13.428 10.696 13.428 10C13.428 9.304 13.38 8.642 13.312 8ZM3.682 13H6.807C6.959 13.926 7.182 14.768 7.463 15.486C7.647 15.959 7.859 16.373 8.098 16.732C7.13839 16.4608 6.24789 15.9874 5.48624 15.3438C4.7246 14.7001 4.10942 13.901 3.682 13ZM7.832 13H12.168C12.027 13.8 11.838 14.527 11.605 15.123C11.356 15.762 11.062 16.259 10.773 16.573C10.485 16.885 10.231 17 10 17C9.769 17 9.515 16.885 9.227 16.572C8.937 16.259 8.644 15.762 8.395 15.123C8.162 14.527 7.973 13.8 7.832 13ZM13.193 13H16.318C15.8906 13.901 15.2754 14.7001 14.5138 15.3438C13.7521 15.9874 12.8616 16.4608 11.902 16.732C12.141 16.372 12.352 15.959 12.537 15.486C12.817 14.768 13.041 13.926 13.193 13Z" fill="#FFC964"/>
</svg>
