<svg width="20" height="20" viewBox="0 0 20 20" fill="none" xmlns="http://www.w3.org/2000/svg">
<path d="M10.1261 10.7405C10.5344 10.7405 10.8655 10.4094 10.8655 10.0011C10.8655 9.59275 10.5344 9.26172 10.1261 9.26172C9.71775 9.26172 9.38672 9.59275 9.38672 10.0011C9.38672 10.4094 9.71775 10.7405 10.1261 10.7405Z" fill="#00C48F"/>
<path d="M10.1241 7.79191C9.96114 7.79817 9.79509 7.82637 9.62591 7.87963C9.1497 8.02688 8.83014 8.31198 8.79568 8.34331C8.63903 8.48429 8.6265 8.72866 8.77062 8.88531C8.9116 9.04196 9.15597 9.05449 9.31262 8.9135C9.36901 8.86338 9.7011 8.58141 10.1241 8.56261C10.3716 8.55008 10.6504 8.62841 10.923 8.90097C10.9981 8.97616 11.0953 9.01376 11.1955 9.01376C11.2926 9.01376 11.3929 8.97616 11.4681 8.90097C11.6185 8.75059 11.6185 8.50622 11.4681 8.35584C11.0796 7.96735 10.6159 7.77624 10.1241 7.79191Z" fill="#00C48F"/>
<path d="M10.1241 6.35162C9.81707 6.36415 9.5351 6.42054 9.29073 6.49573C8.4511 6.75264 7.87777 7.25704 7.85271 7.27897C7.69293 7.42309 7.6804 7.66433 7.82764 7.82097C7.90597 7.90556 8.01249 7.94629 8.11901 7.94629C8.213 7.94629 8.31012 7.91183 8.38531 7.84604C8.43231 7.80531 9.17482 7.15992 10.1272 7.11919C10.6661 7.09413 11.2708 7.26331 11.8566 7.83351C12.0101 7.98389 12.2608 7.98389 12.4143 7.83351C12.5678 7.68312 12.5678 7.43875 12.4143 7.28837C11.6311 6.5302 10.8165 6.32656 10.1241 6.35162Z" fill="#00C48F"/>
<path d="M10.1242 5.01725C9.69184 5.03605 9.29395 5.11751 8.94933 5.22716C7.75254 5.60311 6.93171 6.33936 6.89724 6.37069C6.73433 6.51794 6.72493 6.76857 6.86905 6.92835C7.0163 7.09127 7.26693 7.1038 7.42985 6.95655C7.50504 6.89076 8.6517 5.87568 10.1242 5.80989C10.9576 5.77229 11.8974 6.03546 12.806 6.94402C12.8843 7.02234 12.9846 7.05994 13.0848 7.05994C13.1851 7.05994 13.2885 7.02234 13.3637 6.94402C13.5172 6.7905 13.5172 6.53987 13.3637 6.38322C12.2577 5.27415 11.1048 4.97652 10.1242 5.01725Z" fill="#00C48F"/>
<path d="M17.317 16.5588H10.6062V14.3062H17.3139C17.7118 14.3062 18.0345 13.9836 18.0345 13.5857L18.0407 2.72058C18.0407 2.52947 17.9655 2.34463 17.8308 2.20991C17.6961 2.07519 17.5113 2 17.3201 2H2.72058C2.32269 2 2 2.32269 2 2.72058V13.5857C2 13.9836 2.32269 14.3062 2.72058 14.3062H9.4063V16.5588H2.72371C2.32583 16.5588 2.00313 16.8815 2.00313 17.2794C2.00313 17.6773 2.32583 18 2.72371 18H17.317C17.7149 18 18.0376 17.6773 18.0376 17.2794C18.0376 16.8815 17.7149 16.5588 17.317 16.5588ZM16.3709 13.8269H15.3464C15.2273 13.8269 15.1333 13.7204 15.1333 13.5857C15.1333 13.4509 15.2305 13.3444 15.3464 13.3444H16.3709C16.4899 13.3444 16.5839 13.4509 16.5839 13.5857C16.5839 13.7204 16.4868 13.8269 16.3709 13.8269ZM3.44116 12.8651V3.44116H16.5996L16.5964 12.8651H3.44116ZM10.2209 13.8676C10.0642 14.0086 9.82612 13.9992 9.682 13.8426C9.54102 13.6859 9.55042 13.4478 9.70707 13.3037C9.86372 13.1596 10.1018 13.1721 10.2459 13.3288C10.3869 13.4854 10.3744 13.7266 10.2209 13.8676Z" fill="#00C48F"/>
</svg>
