<svg width="27" height="25" viewBox="0 0 27 25" fill="none" xmlns="http://www.w3.org/2000/svg">
<path d="M21.9192 11.2869V4.90375C21.9169 4.19097 21.6327 3.50806 21.1288 3.00394C20.6246 2.50002 19.9417 2.21582 19.2289 2.21351H18.4921V1.35675C18.4921 1.05057 18.3288 0.767739 18.0637 0.614745C17.7986 0.461752 17.472 0.461752 17.2069 0.614745C16.9419 0.767739 16.7786 1.05058 16.7786 1.35675V2.21351H5.64063V1.35675C5.64063 1.05057 5.47731 0.767739 5.21225 0.614745C4.94718 0.461752 4.62054 0.461752 4.35548 0.614745C4.09043 0.767739 3.9271 1.05058 3.9271 1.35675V2.21351H3.19024C2.47746 2.21581 1.79454 2.5 1.29043 3.00394C0.786502 3.50806 0.502301 4.19097 0.5 4.90375V18.3721C0.502295 19.0849 0.786482 19.7678 1.29043 20.2719C1.79454 20.7758 2.47746 21.06 3.19024 21.0623H13.42C14.5252 22.9845 16.4919 24.2532 18.6986 24.4678C20.9056 24.6824 23.0798 23.8162 24.5344 22.1431C25.9892 20.4697 26.5446 18.1962 26.0253 16.0405C25.5061 13.885 23.9762 12.1139 21.919 11.2865L21.9192 11.2869ZM3.19033 3.92753H3.9272V4.78429C3.9272 5.09047 4.09052 5.37331 4.35558 5.5263C4.62065 5.67929 4.94729 5.67929 5.21235 5.5263C5.4774 5.37331 5.64073 5.09046 5.64073 4.78429V3.92753H16.7787V4.78429C16.7787 5.09047 16.942 5.37331 17.207 5.5263C17.4721 5.67929 17.7987 5.67929 18.0638 5.5263C18.3289 5.37331 18.4922 5.09046 18.4922 4.78429V3.92753H19.229C19.488 3.92753 19.7364 4.03042 19.9196 4.21363C20.1028 4.39684 20.2057 4.64526 20.2057 4.90418V6.49781H2.21366V4.90418C2.21366 4.64524 2.31655 4.39683 2.49976 4.21363C2.68297 4.03043 2.93142 3.92753 3.19033 3.92753ZM2.21367 18.3726V8.21135H20.2057V10.8417C19.9215 10.8042 19.6354 10.7843 19.3489 10.7817C17.5312 10.7817 15.7878 11.5038 14.5023 12.7891C13.217 14.0747 12.4948 15.818 12.4948 17.6358C12.4954 18.2141 12.5704 18.7899 12.7176 19.3493H3.19042C2.93148 19.3493 2.68307 19.2464 2.49987 19.0632C2.31667 18.88 2.21377 18.6316 2.21377 18.3726L2.21367 18.3726ZM19.3489 22.7763C18.3761 22.7761 17.4235 22.4997 16.6016 21.9796C15.7794 21.4594 15.1219 20.7166 14.7052 19.8377C14.3736 19.1513 14.2036 18.398 14.2084 17.6357C14.2084 16.2723 14.75 14.9648 15.7141 14.0008C16.6781 13.0367 17.9856 12.4951 19.349 12.4951C20.7124 12.4951 22.0199 13.0367 22.9839 14.0008C23.948 14.9648 24.4896 16.2723 24.4896 17.6357C24.4896 18.9991 23.948 20.3066 22.9839 21.2706C22.0198 22.2347 20.7124 22.7763 19.349 22.7763H19.3489Z" fill="#FF9355"/>
<path d="M21.0625 16.7786H20.2057V14.2083C20.2057 13.9021 20.0424 13.6193 19.7773 13.4663C19.5123 13.3133 19.1856 13.3133 18.9206 13.4663C18.6555 13.6193 18.4922 13.9021 18.4922 14.2083V17.6354C18.4922 17.8626 18.5825 18.0806 18.7431 18.2412C18.9037 18.4019 19.1218 18.4921 19.349 18.4921H21.0625C21.3687 18.4921 21.6515 18.3288 21.8045 18.0637C21.9575 17.7987 21.9575 17.472 21.8045 17.207C21.6515 16.9419 21.3686 16.7786 21.0625 16.7786Z" fill="#FF9355"/>
</svg>
