<svg width="31" height="31" viewBox="0 0 31 31" fill="none" xmlns="http://www.w3.org/2000/svg">
<path d="M8.99289 19.0795C9.38465 18.6865 9.91645 18.4656 10.4712 18.4649C10.4712 18.4649 10.4712 18.4649 10.4712 18.4649L10.4714 18.6149L8.99289 19.0795ZM8.99289 19.0795C8.60119 19.4723 8.38154 20.0046 8.3824 20.5594L8.99289 19.0795ZM18.6926 19.0795C19.0844 18.6865 19.6163 18.4656 20.171 18.4649C20.171 18.4649 20.171 18.4649 20.1711 18.4649L20.1713 18.6149L18.6926 19.0795ZM18.6926 19.0795C18.3009 19.4723 18.0814 20.0047 18.0823 20.5594M18.6926 19.0795L21.547 19.1833C21.912 19.5482 22.1166 20.0432 22.1157 20.5592M18.0823 20.5594C18.0823 20.5594 18.0823 20.5594 18.0823 20.5594L18.2323 20.5592L18.0823 20.5594ZM18.0823 20.5594C18.083 21.113 18.3032 21.644 18.6947 22.0355C19.0863 22.427 19.6171 22.6474 20.1708 22.6482M20.1708 22.6482C20.1709 22.6482 20.1709 22.6482 20.1709 22.6482L20.1711 22.4982L20.1708 22.6482ZM20.1708 22.6482C20.7256 22.6491 21.2582 22.4296 21.651 22.0377C22.0439 21.646 22.265 21.1141 22.2657 20.5594C22.2657 20.5594 22.2657 20.5594 22.2657 20.5594L22.1157 20.5592M22.1157 20.5592C22.1151 21.0742 21.9098 21.5679 21.545 21.9315L22.1157 20.5592ZM2.47536 3.60503L2.47532 3.60501L2.47311 3.60811C2.35345 3.77639 2.31498 4.00031 2.38446 4.19633C4.14806 9.69908 4.14782 15.2861 2.38371 20.7889L2.38352 20.7895C2.3163 21.0022 2.3522 21.2045 2.47306 21.3747L2.47305 21.3747L2.47401 21.376C2.59266 21.5393 2.77272 21.6501 3.00267 21.6501H7.83824H8.05421L7.9788 21.4477C7.87235 21.1621 7.81045 20.8678 7.81045 20.5594V20.5079V20.3579H7.66045H3.86861C5.38437 15.1329 5.38452 9.85135 3.86886 4.64856H26.5611C25.0427 9.85417 25.0429 15.1357 26.5613 20.3579H22.9817H22.8317V20.5079V20.5594C22.8317 20.8697 22.7745 21.168 22.6741 21.4498L22.6028 21.6501H22.8154H27.4217C27.6523 21.6501 27.8302 21.5389 27.9534 21.3796L27.9538 21.3799L27.9609 21.369C28.0652 21.207 28.1154 21.004 28.0464 20.7888L28.0463 20.7885C26.2676 15.2859 26.2674 9.69912 28.0456 4.19652C28.1167 3.9959 28.0642 3.77401 27.9608 3.61371L27.9611 3.61351L27.9547 3.60503C27.8265 3.43404 27.64 3.35 27.4217 3.35H3.00267C2.7825 3.35 2.60256 3.43543 2.47536 3.60503ZM6.55271 26.2252L6.55179 26.3186L6.63523 26.3607L6.65816 26.3722L6.66737 26.3769L6.67713 26.3802C7.86426 26.7859 9.11256 26.9561 10.3625 26.9561H11.2974H11.4054V27.282V27.4147L11.5371 27.4309C12.7393 27.5786 14.0147 27.65 15.324 27.65C16.6364 27.65 17.9031 27.5786 19.1052 27.4309L19.2369 27.4147V27.282V26.956H19.3507H20.28C21.5302 26.956 22.7838 26.7827 23.9706 26.3801L23.9851 26.3752L23.9965 26.3685L23.9995 26.367L24.0056 26.364L24.0139 26.3599L24.0962 26.3176L24.0953 26.2251C24.0769 24.3483 22.5493 22.8413 20.6815 22.8413L19.672 22.8415C18.7935 22.8415 17.9876 23.1736 17.3847 23.7302L17.2576 23.8476C16.8229 23.6472 16.3388 23.5356 15.8288 23.5356H14.8193C14.3098 23.5356 13.8257 23.6473 13.3906 23.8479L13.2635 23.7304C12.6607 23.1736 11.8546 22.8416 10.9763 22.8416L9.96655 22.8415C8.09874 22.8415 6.57108 24.3484 6.55271 26.2252ZM12.5657 20.5594C12.5666 20.0036 12.3462 19.4703 11.9532 19.0773L12.5657 20.5594ZM15.3241 19.1589C14.7492 19.1589 14.2215 19.3934 13.8471 19.7764C13.4644 20.1503 13.2296 20.6723 13.2296 21.2477C13.2296 22.406 14.1756 23.3422 15.3241 23.3422C16.4795 23.3422 17.4129 22.4049 17.4129 21.2477C17.4129 20.099 16.4762 19.1589 15.3241 19.1589Z" fill="#768CFF" stroke="#768CFF" stroke-width="0.3"/>
<path fill-rule="evenodd" clip-rule="evenodd" d="M15.735 9.77832C14.6668 9.77832 13.8008 10.6443 13.8008 11.7126C13.8008 12.7808 14.6668 13.6468 15.735 13.6468C16.8033 13.6468 17.6693 12.7808 17.6693 11.7126C17.6693 10.6443 16.8033 9.77832 15.735 9.77832ZM15.0903 11.7126C15.0903 11.3565 15.3789 11.0679 15.735 11.0679C16.0911 11.0679 16.3798 11.3565 16.3798 11.7126C16.3798 12.0687 16.0911 12.3573 15.735 12.3573C15.3789 12.3573 15.0903 12.0687 15.0903 11.7126Z" fill="#768CFF"/>
<path fill-rule="evenodd" clip-rule="evenodd" d="M20.7516 10.0127C17.982 7.24315 13.4912 7.24315 10.7216 10.0127L9.47793 11.2564C9.22611 11.5082 9.22611 11.9165 9.47793 12.1683L10.7216 13.4119C13.4912 16.1815 17.982 16.1815 20.7516 13.4119L21.9952 12.1683C22.2469 11.9164 22.2469 11.5082 21.9952 11.2564L20.7516 10.0127ZM11.6335 10.9246C13.8996 8.65842 17.5736 8.65842 19.8397 10.9246L20.6275 11.7123L19.8397 12.5001C17.5735 14.7663 13.8996 14.7663 11.6335 12.5001L10.8457 11.7123L11.6335 10.9246Z" fill="#768CFF"/>
</svg>
